HIERARCHY
ROOT Hips
{
	OFFSET 0.000000 0.000000 0.000000
	CHANNELS 6 Xposition Yposition Zposition Xrotation Yrotation Zrotation
	JOINT LeftUpLeg_virtual
	{
		OFFSET 0.000000 0.000000 0.000000
		CHANNELS 3 Xrotation Yrotation Zrotation
		JOINT LeftUpLeg
		{
			OFFSET 11.394100 -6.187798 -0.413800
			CHANNELS 3 Xrotation Yrotation Zrotation
			JOINT LeftLeg
			{
				OFFSET 0.430247 -32.302673 3.732800
				CHANNELS 3 Xrotation Yrotation Zrotation
				JOINT LeftFoot
				{
					OFFSET -0.430247 -48.264931 -6.423300
					CHANNELS 3 Xrotation Yrotation Zrotation
					JOINT LeftToeBase
					{
						OFFSET 4.230900 -16.068199 23.438400
						CHANNELS 3 Xrotation Yrotation Zrotation
						JOINT LeftToe_End
						{
							OFFSET 4.510700 0.695400 19.974600
							CHANNELS 3 Xrotation Yrotation Zrotation
							End Site
							{
								OFFSET 0 0 0
							}
						}
					}
				}
			}
		}
	}
	JOINT RightUpLeg_virtual
	{
		OFFSET 0.000000 0.000000 0.000000
		CHANNELS 3 Xrotation Yrotation Zrotation
		JOINT RightUpLeg
		{
			OFFSET -11.333700 -6.187798 -0.413800
			CHANNELS 3 Xrotation Yrotation Zrotation
			JOINT RightLeg
			{
				OFFSET -0.430392 -32.302628 3.733000
				CHANNELS 3 Xrotation Yrotation Zrotation
				JOINT RightFoot
				{
					OFFSET 0.430392 -48.264973 -6.423500
					CHANNELS 3 Xrotation Yrotation Zrotation
					JOINT RightToeBase
					{
						OFFSET -4.230900 -16.068199 23.438400
						CHANNELS 3 Xrotation Yrotation Zrotation
						JOINT RightToe_End
						{
							OFFSET -4.510700 0.695400 19.974600
							CHANNELS 3 Xrotation Yrotation Zrotation
							End Site
							{
								OFFSET 0 0 0
							}
						}
					}
				}
			}
		}
	}
	JOINT Spine_virtual
	{
		OFFSET 0.000000 0.000000 0.000000
		CHANNELS 3 Xrotation Yrotation Zrotation
		JOINT Spine
		{
			OFFSET -0.002400 12.777504 0.315300
			CHANNELS 3 Xrotation Yrotation Zrotation
			JOINT Spine1
			{
				OFFSET -0.002067 5.816869 0.032633
				CHANNELS 3 Xrotation Yrotation Zrotation
				JOINT Spine1_split
				{
					OFFSET -0.002067 5.816869 0.032633
					CHANNELS 3 Xrotation Yrotation Zrotation
					JOINT Spine2
					{
						OFFSET -0.002067 5.816869 0.032633
						CHANNELS 3 Xrotation Yrotation Zrotation
						JOINT Neck_virtual
						{
							OFFSET 0.000000 0.000000 0.000000
							CHANNELS 3 Xrotation Yrotation Zrotation
							JOINT Neck
							{
								OFFSET -0.003700 21.199493 -0.826900
								CHANNELS 3 Xrotation Yrotation Zrotation
								JOINT Head
								{
									OFFSET 0.000000 20.442200 4.834800
									CHANNELS 3 Xrotation Yrotation Zrotation
									JOINT HeadTop_End
									{
										OFFSET 0.000000 34.668396 4.968400
										CHANNELS 3 Xrotation Yrotation Zrotation
										End Site
										{
											OFFSET 0 0 0
										}
									}
								}
							}
						}
						JOINT LeftShoulder_virtual
						{
							OFFSET 0.000000 0.000000 0.000000
							CHANNELS 3 Xrotation Yrotation Zrotation
							JOINT LeftShoulder
							{
								OFFSET 3.288150 8.794197 -1.372250
								CHANNELS 3 Xrotation Yrotation Zrotation
								JOINT LeftShoulder_split
								{
									OFFSET 3.288150 8.794197 -1.372250
									CHANNELS 3 Xrotation Yrotation Zrotation
									JOINT LeftArm
									{
										OFFSET 11.953299 -2.279007 -0.146200
										CHANNELS 3 Xrotation Yrotation Zrotation
										JOINT LeftForeArm
										{
											OFFSET 18.448900 0.000000 0.000000
											CHANNELS 3 Xrotation Yrotation Zrotation
											JOINT LeftHand
											{
												OFFSET 29.527798 0.000000 0.000000
												CHANNELS 3 Xrotation Yrotation Zrotation
												End Site
												{
													OFFSET 0 0 0
												}
											}
										}
									}
								}
							}
						}
						JOINT RightShoulder_virtual
						{
							OFFSET 0.000000 0.000000 0.000000
							CHANNELS 3 Xrotation Yrotation Zrotation
							JOINT RightShoulder
							{
								OFFSET -3.249400 8.794197 -1.372250
								CHANNELS 3 Xrotation Yrotation Zrotation
								JOINT RightShoulder_split
								{
									OFFSET -3.249400 8.794197 -1.372250
									CHANNELS 3 Xrotation Yrotation Zrotation
									JOINT RightArm
									{
										OFFSET -11.953299 -2.279007 -0.146200
										CHANNELS 3 Xrotation Yrotation Zrotation
										JOINT RightForeArm
										{
											OFFSET -18.448900 0.000000 0.000000
											CHANNELS 3 Xrotation Yrotation Zrotation
											JOINT RightHand
											{
												OFFSET -29.527802 0.000000 0.000000
												CHANNELS 3 Xrotation Yrotation Zrotation
												End Site
												{
													OFFSET 0 0 0
												}
											}
										}
									}
								}
							}
						}
					}
				}
			}
		}
	}
}
MOTION
Frames: 4
Frame Time: 0.03333333
-1.350315 132.654572 18.157705 0.000000 0.000000 0.000000 6.218375 -39.933346 2.798963 -92.916152 -19.790258 18.032616 83.631678 -1.800391 -0.135547 17.544811 2.832824 -2.055952 -15.003340 3.252592 -1.518244 0.000000 0.000000 0.000000 5.853886 -36.065311 2.170535 -140.253905 -47.947853 -3.923936 121.027018 -9.068575 -28.043099 56.702523 10.512787 26.019558 11.861122 5.358961 -11.544259 0.000000 0.000000 0.000000 4.017563 -41.834687 0.171693 32.182492 -8.060544 -6.941188 12.471949 0.677964 -3.415314 0.120107 1.679243 0.975206 0.000000 0.000000 0.000000 12.367225 0.574811 -2.399388 -7.459990 19.032175 -15.197449 -29.676424 11.190760 3.774429 0.000000 0.000000 0.000000 13.769787 1.122865 -2.860414 13.309062 -19.761491 3.474701 2.651304 -4.492785 -3.487211 -58.789897 -11.108068 -6.018534 47.531570 -16.186908 29.190234 0.000000 0.000000 0.000000 14.930978 1.078028 -3.129051 18.862966 24.257248 -7.824215 0.320702 4.063265 3.745329 -33.953987 2.124777 8.908191 -44.294443 48.366420 33.781989 0.000000 0.000000 0.000000 
-1.297133 132.563110 18.130230 0.000000 0.000000 0.000000 6.234521 -40.275010 3.010747 -92.813337 -19.701064 18.160694 83.520024 -1.803083 -0.257742 17.427079 3.058735 -2.181848 -14.969688 3.227184 -1.532401 0.000000 0.000000 0.000000 5.866278 -36.360963 2.357509 -140.040024 -47.780418 -4.030540 120.823109 -8.844502 -27.998332 56.454570 10.396064 25.655277 11.864109 5.356312 -11.618813 0.000000 0.000000 0.000000 3.925565 -41.963046 0.303448 32.155141 -8.079783 -6.996923 12.414928 0.699586 -3.404052 0.069590 1.693966 0.985584 0.000000 0.000000 0.000000 12.390337 0.579425 -2.406754 -7.446631 19.016483 -15.212257 -29.431275 11.280797 3.624722 0.000000 0.000000 0.000000 13.711361 1.147125 -2.842698 13.031139 -19.837350 2.771875 2.823232 -4.596732 -3.763086 -57.973341 -10.513653 -5.871212 47.391107 -16.080868 28.929645 0.000000 0.000000 0.000000 14.889476 1.064880 -3.137771 18.402481 24.671033 -6.854108 0.307655 4.156209 3.724731 -32.862369 1.993425 8.821350 -44.422946 48.119017 33.708015 0.000000 0.000000 0.000000 
-1.257966 132.476974 18.107731 0.000000 0.000000 0.000000 6.324683 -40.508131 3.243925 -92.670197 -19.636276 18.211952 83.349509 -1.840703 -0.363725 17.201541 3.335452 -2.313915 -14.937733 3.184535 -1.524353 0.000000 0.000000 0.000000 5.924242 -36.544070 2.546751 -139.806350 -47.588520 -4.141880 120.603150 -8.613443 -27.943661 56.164191 10.323387 25.327284 11.805821 5.353019 -11.660432 0.000000 0.000000 0.000000 3.873505 -42.087749 0.465889 32.070081 -8.096107 -7.041325 12.350143 0.712772 -3.395724 0.041858 1.704020 0.997536 0.000000 0.000000 0.000000 12.393120 0.583957 -2.421013 -7.370829 18.989642 -15.241693 -29.119053 11.370267 3.514474 0.000000 0.000000 0.000000 13.656542 1.168102 -2.830522 12.801923 -19.846863 2.170962 2.907024 -4.719537 -4.048760 -57.043547 -9.673512 -5.567307 47.239545 -16.114517 28.734172 0.000000 0.000000 0.000000 14.844931 1.055330 -3.148947 17.987880 25.036400 -6.028371 0.286063 4.231131 3.786491 -31.911095 1.623077 8.614875 -44.512302 47.766194 33.570363 0.000000 0.000000 0.000000 
-1.232982 132.409470 18.067030 0.000000 0.000000 0.000000 6.472513 -40.597698 3.492002 -92.497987 -19.611416 18.164043 83.133374 -1.904854 -0.447573 16.911927 3.654156 -2.454667 -14.922567 3.129851 -1.492594 0.000000 0.000000 0.000000 6.013939 -36.615500 2.746351 -139.574943 -47.389119 -4.297275 120.374626 -8.387746 -27.876290 55.818222 10.295726 25.032560 11.740243 5.349299 -11.682536 0.000000 0.000000 0.000000 3.855194 -42.201174 0.663331 31.943927 -8.118038 -7.078639 12.292712 0.717243 -3.392387 0.056737 1.733523 1.054987 0.000000 0.000000 0.000000 12.381593 0.590253 -2.442767 -7.271736 18.947013 -15.267025 -28.758723 11.434292 3.461414 0.000000 0.000000 0.000000 13.609965 1.184885 -2.825771 12.608991 -19.798574 1.624829 2.874498 -4.802691 -4.335230 -56.016116 -8.561135 -5.179034 47.151344 -16.333839 28.662028 0.000000 0.000000 0.000000 14.799901 1.051184 -3.159502 17.620812 25.348606 -5.315337 0.282447 4.278456 3.917817 -31.167106 1.215818 8.362674 -44.472823 47.277292 33.287016 0.000000 0.000000 0.000000 
